Run_20002
nRows=4
nColumns=164

# SIMM Motion File Header:
name Run_20002
datacolumns 164
datarows 4
otherdata 1
range 0.09000000 0.12000000
endheader
time	pelvis_tilt	pelvis_list	pelvis_rotation	pelvis_tx	pelvis_ty	pelvis_tz	hip_flexion_r	hip_adduction_r	hip_rotation_r	knee_angle_r	ankle_angle_r	hip_flexion_l	hip_adduction_l	hip_rotation_l	knee_angle_l	ankle_angle_l	lumbar_extension	lumbar_bending	lumbar_rotation	arm_flex_r	arm_add_r	arm_rot_r	elbow_flex_r	pro_sup_r	arm_flex_l	arm_add_l	arm_rot_l	elbow_flex_l	pro_sup_l	subtalar_angle_r	mtp_angle_r	subtalar_angle_l	mtp_angle_l	wrist_flex_r	wrist_dev_r	wrist_flex_l	wrist_dev_l	LASI_tx	LASI_ty	LASI_tz	RASI_tx	RASI_ty	RASI_tz	LPSI_tx	LPSI_ty	LPSI_tz	RPSI_tx	RPSI_ty	RPSI_tz	RTH1_tx	RTH1_ty	RTH1_tz	RTH2_tx	RTH2_ty	RTH2_tz	RTH3_tx	RTH3_ty	RTH3_tz	LTH1_tx	LTH1_ty	LTH1_tz	LTH2_tx	LTH2_ty	LTH2_tz	LTH3_tx	LTH3_ty	LTH3_tz	RTB1_tx	RTB1_ty	RTB1_tz	RTB2_tx	RTB2_ty	RTB2_tz	RTB3_tx	RTB3_ty	RTB3_tz	LTB1_tx	LTB1_ty	LTB1_tz	LTB2_tx	LTB2_ty	LTB2_tz	LTB3_tx	LTB3_ty	LTB3_tz	RCAL_tx	RCAL_ty	RCAL_tz	RTOE_tx	RTOE_ty	RTOE_tz	RMT5_tx	RMT5_ty	RMT5_tz	LCAL_tx	LCAL_ty	LCAL_tz	LTOE_tx	LTOE_ty	LTOE_tz	LMT5_tx	LMT5_ty	LMT5_tz	LACR_tx	LACR_ty	LACR_tz	RACR_tx	RACR_ty	RACR_tz	CLAV_tx	CLAV_ty	CLAV_tz	C7_tx	C7_ty	C7_tz	RUA1_tx	RUA1_ty	RUA1_tz	RUA2_tx	RUA2_ty	RUA2_tz	RUA3_tx	RUA3_ty	RUA3_tz	RLEL_tx	RLEL_ty	RLEL_tz	RMEL_tx	RMEL_ty	RMEL_tz	LUA1_tx	LUA1_ty	LUA1_tz	LUA2_tx	LUA2_ty	LUA2_tz	LUA3_tx	LUA3_ty	LUA3_tz	LLEL_tx	LLEL_ty	LLEL_tz	LMEL_tx	LMEL_ty	LMEL_tz	RFAsuperior_tx	RFAsuperior_ty	RFAsuperior_tz	RFAradius_tx	RFAradius_ty	RFAradius_tz	RFAulna_tx	RFAulna_ty	RFAulna_tz	LFAsuperior_tx	LFAsuperior_ty	LFAsuperior_tz	LFAradius_tx	LFAradius_ty	LFAradius_tz	LFAulna_tx	LFAulna_ty	LFAulna_tz
      0.09000000	    -12.38303531	      0.48673565	     -4.39813074	      1.07263966	      1.03387776	     -0.35733392	     39.23948868	      1.91642053	      0.36269264	    -47.50092176	      8.79499518	      7.84379283	      5.20962621	     -0.11933040	    -21.79364886	      5.13589677	      1.29646830	      0.10026272	     -5.62396679	    -37.53464198	    -19.68720191	     -9.80131333	     89.29721035	    110.94325466	    -21.53692593	    -10.28019190	     -9.73033236	    122.31578356	    103.64412720	      0.00000000	      0.00000000	      0.00000000	      0.00000000	      0.00000000	      0.00000000	      0.00000000	      0.00000000	      1.10021163	      1.06712735	     -0.48012457	      1.07858248	      1.07917552	     -0.23558069	      0.93898174	      1.13413186	     -0.42937562	      0.92478403	      1.13154061	     -0.31648548	      1.01724308	      0.96384158	     -0.18184002	      1.02842641	      0.81066365	     -0.20934368	      1.12980543	      0.68895126	     -0.21316517	      1.03552608	      0.93655294	     -0.53265036	      0.93683113	      0.79507087	     -0.49142617	      0.97164677	      0.65614970	     -0.48070216	      1.18274551	      0.44106802	     -0.27255548	      1.08657418	      0.42395037	     -0.21295044	      1.09777430	      0.27238543	     -0.28699248	      0.96245055	      0.42509821	     -0.40686198	      0.84596041	      0.35713643	     -0.46102507	      0.84722119	      0.24003411	     -0.39611598	      0.94270358	      0.17560593	     -0.29707650	      1.17822802	      0.11307632	     -0.30032514	      1.11786210	      0.09502370	     -0.21083101	      0.67353279	      0.16813256	     -0.37997856	      0.88669110	      0.06834318	     -0.35218384	      0.83496789	      0.04584314	     -0.45178053	      1.08427263	      1.55432194	     -0.52654512	      1.06303781	      1.54702688	     -0.20121018	      1.13250769	      1.51137643	     -0.32506568	      1.01957030	      1.58281743	     -0.37193754	      0.92761036	      1.48053659	     -0.15865996	      0.94935126	      1.41623908	     -0.11662136	      0.85853862	      1.36327051	     -0.09138243	      0.80551658	      1.31967874	     -0.07146123	      0.81228682	      1.28961919	     -0.15588374	      1.00108762	      1.44762020	     -0.59109972	      1.03818745	      1.36911172	     -0.60339561	      0.97695188	      1.29473152	     -0.63137137	      0.96679706	      1.22801421	     -0.64688389	      0.94359686	      1.21124643	     -0.55948233	      0.86356117	      1.22756897	     -0.05320781	      0.99296109	      1.11304108	     -0.11300786	      0.94474730	      1.08748426	     -0.07081684	      1.04148395	      1.19667927	     -0.62789335	      1.18800788	      1.24817594	     -0.51993378	      1.20203072	      1.18271339	     -0.54679691
      0.10000000	    -12.33102781	      0.15039130	     -4.76819271	      1.07407034	      1.03909112	     -0.35617669	     38.16555101	      2.58567242	      0.10873897	    -41.95733007	      8.38203935	      6.11259049	      4.75537739	     -0.68161405	    -20.57079542	      2.18382829	      1.26862925	      0.58919894	     -5.56183544	    -38.62231602	    -19.52801472	    -10.56137596	     90.22157949	    110.13132585	    -21.99999687	    -10.57834795	     -9.26857934	    123.90846995	    103.39796536	      0.00000000	      0.00000000	      0.00000000	      0.00000000	      0.00000000	      0.00000000	      0.00000000	      0.00000000	      1.10157091	      1.07108448	     -0.47860344	      1.07923147	      1.08463745	     -0.23477966	      0.94035825	      1.13874501	     -0.42947196	      0.92592500	      1.13642143	     -0.31713425	      1.01704282	      0.96940739	     -0.18052160	      1.02709720	      0.81527082	     -0.20935381	      1.12560017	      0.69240453	     -0.21349783	      1.03594373	      0.94077285	     -0.53226198	      0.93337396	      0.80163248	     -0.49177020	      0.96460427	      0.66206191	     -0.48099455	      1.18838685	      0.44353446	     -0.27233372	      1.09431151	      0.41894291	     -0.21245686	      1.11666236	      0.26942504	     -0.28846841	      0.95050932	      0.43069807	     -0.40807013	      0.83328066	      0.36431545	     -0.46202682	      0.83431040	      0.24656855	     -0.39733930	      0.96965000	      0.16095420	     -0.29861924	      1.20894109	      0.11687616	     -0.30380939	      1.15077408	      0.09297817	     -0.21414026	      0.66117032	      0.17865863	     -0.38066444	      0.86859679	      0.06814740	     -0.35229721	      0.81561877	      0.04714592	     -0.44989225	      1.08627722	      1.56010446	     -0.52454688	      1.06326407	      1.55215336	     -0.20036978	      1.13289528	      1.51666481	     -0.32319823	      1.02022964	      1.58795675	     -0.37089392	      0.92633162	      1.48804388	     -0.15981161	      0.94713836	      1.42355226	     -0.11675729	      0.85538870	      1.37182168	     -0.09304850	      0.80144176	      1.32859642	     -0.07392487	      0.80950021	      1.29830160	     -0.15850662	      1.00334514	      1.45433101	     -0.59089972	      1.04023622	      1.37610280	     -0.60335543	      0.97860944	      1.30237388	     -0.63278362	      0.96886089	      1.23545650	     -0.64849043	      0.94339928	      1.21848224	     -0.56115925	      0.85891587	      1.23635139	     -0.05467132	      0.98938432	      1.12186685	     -0.11201452	      0.94015943	      1.09598429	     -0.07134716	      1.04362802	      1.20544422	     -0.62792870	      1.18661299	      1.25977447	     -0.51805159	      1.20299550	      1.19409263	     -0.54378970
      0.11000000	    -12.18568280	     -0.08005409	     -5.03858279	      1.07548649	      1.04384581	     -0.35512320	     36.79906656	      3.17700472	      0.19743852	    -36.22565235	      7.69598300	      4.46344840	      4.44749796	     -1.11774557	    -19.65505857	     -0.50972057	      1.13136838	      0.94506707	     -5.54110314	    -39.64508354	    -19.32705653	    -11.28016030	     91.13216426	    109.28103806	    -22.44996683	    -10.92395841	     -8.75507396	    125.41834283	    103.38079696	      0.00000000	      0.00000000	      0.00000000	      0.00000000	      0.00000000	      0.00000000	      0.00000000	      0.00000000	      1.10287784	      1.07503033	     -0.47748234	      1.07991367	      1.08948050	     -0.23412255	      0.94168821	      1.14282267	     -0.42947032	      0.92678461	      1.14062474	     -0.31736342	      1.01714147	      0.97415414	     -0.17950822	      1.02552838	      0.81907202	     -0.20926226	      1.12091167	      0.69480664	     -0.21361514	      1.03648776	      0.94470477	     -0.53203899	      0.93055711	      0.80774124	     -0.49219831	      0.95853058	      0.66761261	     -0.48116057	      1.19322579	      0.44579949	     -0.27258990	      1.10174361	      0.41394670	     -0.21185380	      1.13464582	      0.26681432	     -0.28966483	      0.93959232	      0.43608296	     -0.40896834	      0.82145657	      0.37145055	     -0.46280690	      0.82198736	      0.25309002	     -0.39848369	      0.99611447	      0.14744995	     -0.29926365	      1.23787085	      0.12159189	     -0.30755673	      1.18289997	      0.09177811	     -0.21796285	      0.64930341	      0.18949479	     -0.38161558	      0.85067110	      0.06846086	     -0.35246898	      0.79691366	      0.04937945	     -0.44908995	      1.08803800	      1.56544731	     -0.52253964	      1.06361602	      1.55676437	     -0.19953133	      1.13327119	      1.52135157	     -0.32151806	      1.02082538	      1.59261338	     -0.36982437	      0.92537728	      1.49509626	     -0.16036535	      0.94519633	      1.43018139	     -0.11685309	      0.85258185	      1.37961513	     -0.09459214	      0.79778350	      1.33673123	     -0.07630194	      0.80706044	      1.30621632	     -0.16085537	      1.00526438	      1.46053414	     -0.59062783	      1.04196782	      1.38264693	     -0.60336541	      0.98002958	      1.30957179	     -0.63413946	      0.97066837	      1.24241944	     -0.65005832	      0.94289296	      1.22529436	     -0.56276705	      0.85473718	      1.24439252	     -0.05607075	      0.98630149	      1.13000732	     -0.11104228	      0.93610667	      1.10379480	     -0.07186714	      1.04541328	      1.21358543	     -0.62795882	      1.18524598	      1.27027961	     -0.51584570	      1.20353282	      1.20454634	     -0.54078730
      0.12000000	    -11.98602171	     -0.13777772	     -5.19777733	      1.07676091	      1.04782736	     -0.35418760	     35.25857003	      3.60503768	      0.75575899	    -30.53139467	      6.98048273	      3.09320996	      4.34579223	     -1.37820145	    -19.32188533	     -2.76890598	      0.93454749	      1.09040335	     -5.53540365	    -40.55427788	    -19.05022495	    -11.94783028	     91.98958862	    108.41843110	    -22.87224755	    -11.33581560	     -8.18651468	    126.76456417	    103.31608152	      0.00000000	      0.00000000	      0.00000000	      0.00000000	      0.00000000	      0.00000000	      0.00000000	      0.00000000	      1.10408521	      1.07876034	     -0.47679979	      1.08062076	      1.09329812	     -0.23362750	      0.94290616	      1.14605969	     -0.42927388	      0.92737885	      1.14379934	     -0.31704144	      1.01766311	      0.97754617	     -0.17889087	      1.02364638	      0.82167240	     -0.20909787	      1.11564428	      0.69568961	     -0.21346665	      1.03721733	      0.94812968	     -0.53201102	      0.92869730	      0.81308618	     -0.49265145	      0.95402522	      0.67247697	     -0.48111243	      1.19679525	      0.44760685	     -0.27324945	      1.10851452	      0.40907943	     -0.21115376	      1.15104363	      0.26475010	     -0.29040794	      0.93041292	      0.44095511	     -0.40941736	      0.81116405	      0.37838275	     -0.46331560	      0.81066257	      0.25947470	     -0.39944446	      1.02149675	      0.13575138	     -0.29878725	      1.26384852	      0.12765979	     -0.31172150	      1.21338364	      0.09201841	     -0.22231829	      0.63826507	      0.20070611	     -0.38289372	      0.83301322	      0.06947244	     -0.35274281	      0.77908313	      0.05281249	     -0.44951738	      1.08939364	      1.57003557	     -0.52058252	      1.06412550	      1.56054914	     -0.19865459	      1.13362031	      1.52507434	     -0.32009806	      1.02130575	      1.59644568	     -0.36869517	      0.92486891	      1.50125912	     -0.16028555	      0.94365908	      1.43570348	     -0.11687975	      0.85029108	      1.38618158	     -0.09591592	      0.79474774	      1.34359495	     -0.07847618	      0.80513339	      1.31289860	     -0.16284814	      1.00665427	      1.46595676	     -0.59021793	      1.04319017	      1.38845178	     -0.60341687	      0.98104980	      1.31601770	     -0.63541642	      0.97205594	      1.24857528	     -0.65154439	      0.94220035	      1.23133704	     -0.56432830	      0.85128984	      1.25124999	     -0.05734448	      0.98396643	      1.13706109	     -0.11006537	      0.93289700	      1.11049273	     -0.07234306	      1.04664187	      1.22068423	     -0.62797459	      1.18388029	      1.27918667	     -0.51360973	      1.20343606	      1.21347289	     -0.53783246
